<mxfile host="Electron" modified="2024-03-13T23:30:05.983Z" agent="Mozilla/5.0 (Windows NT 10.0; Win64; x64) AppleWebKit/537.36 (KHTML, like Gecko) draw.io/24.0.4 Chrome/120.0.6099.109 Electron/28.1.0 Safari/537.36" etag="scRGkECs-dT6nEMpgGji" version="24.0.4" type="device">
  <diagram name="PÃ¡gina-1" id="_ynEFMPeJX_Sv4S68ShE">
    <mxGraphModel dx="523" dy="394" grid="1" gridSize="10" guides="1" tooltips="1" connect="1" arrows="1" fold="1" page="1" pageScale="1" pageWidth="827" pageHeight="1169" math="0" shadow="0">
      <root>
        <mxCell id="0" />
        <mxCell id="1" parent="0" />
        <mxCell id="xR3U2uLO1Am0mnn2qQ25-1" value="Aluno" style="rounded=0;whiteSpace=wrap;html=1;" parent="1" vertex="1">
          <mxGeometry x="130" y="605" width="120" height="40" as="geometry" />
        </mxCell>
        <mxCell id="xR3U2uLO1Am0mnn2qQ25-2" value="" style="ellipse;whiteSpace=wrap;html=1;aspect=fixed;fillColor=#dae8fc;strokeColor=#6c8ebf;" parent="1" vertex="1">
          <mxGeometry x="135" y="575" width="10" height="10" as="geometry" />
        </mxCell>
        <mxCell id="xR3U2uLO1Am0mnn2qQ25-3" style="edgeStyle=orthogonalEdgeStyle;rounded=0;orthogonalLoop=1;jettySize=auto;html=1;endArrow=none;endFill=0;" parent="1" source="xR3U2uLO1Am0mnn2qQ25-2" edge="1">
          <mxGeometry relative="1" as="geometry">
            <mxPoint x="140" y="605" as="targetPoint" />
          </mxGeometry>
        </mxCell>
        <mxCell id="xR3U2uLO1Am0mnn2qQ25-4" value="&lt;span style=&quot;font-size: 8px;&quot;&gt;cg-mat&lt;/span&gt;" style="text;html=1;align=center;verticalAlign=middle;resizable=0;points=[];autosize=1;strokeColor=none;fillColor=none;" parent="1" vertex="1">
          <mxGeometry x="115" y="550" width="50" height="30" as="geometry" />
        </mxCell>
        <mxCell id="xR3U2uLO1Am0mnn2qQ25-5" value="" style="ellipse;whiteSpace=wrap;html=1;aspect=fixed;fillColor=#dae8fc;strokeColor=#6c8ebf;" parent="1" vertex="1">
          <mxGeometry x="235" y="575" width="10" height="10" as="geometry" />
        </mxCell>
        <mxCell id="xR3U2uLO1Am0mnn2qQ25-6" style="edgeStyle=orthogonalEdgeStyle;rounded=0;orthogonalLoop=1;jettySize=auto;html=1;endArrow=none;endFill=0;" parent="1" source="xR3U2uLO1Am0mnn2qQ25-5" edge="1">
          <mxGeometry relative="1" as="geometry">
            <mxPoint x="240" y="605" as="targetPoint" />
          </mxGeometry>
        </mxCell>
        <mxCell id="xR3U2uLO1Am0mnn2qQ25-7" value="&lt;span style=&quot;font-size: 8px;&quot;&gt;nome&lt;/span&gt;" style="text;html=1;align=center;verticalAlign=middle;resizable=0;points=[];autosize=1;strokeColor=none;fillColor=none;" parent="1" vertex="1">
          <mxGeometry x="220" y="550" width="40" height="30" as="geometry" />
        </mxCell>
        <mxCell id="xR3U2uLO1Am0mnn2qQ25-8" value="" style="ellipse;whiteSpace=wrap;html=1;aspect=fixed;fillColor=#dae8fc;strokeColor=#6c8ebf;" parent="1" vertex="1">
          <mxGeometry x="165" y="575" width="10" height="10" as="geometry" />
        </mxCell>
        <mxCell id="xR3U2uLO1Am0mnn2qQ25-9" style="edgeStyle=orthogonalEdgeStyle;rounded=0;orthogonalLoop=1;jettySize=auto;html=1;endArrow=none;endFill=0;" parent="1" source="xR3U2uLO1Am0mnn2qQ25-8" edge="1">
          <mxGeometry relative="1" as="geometry">
            <mxPoint x="170" y="605" as="targetPoint" />
          </mxGeometry>
        </mxCell>
        <mxCell id="xR3U2uLO1Am0mnn2qQ25-10" value="&lt;span style=&quot;font-size: 8px;&quot;&gt;dt-mat&lt;/span&gt;" style="text;html=1;align=center;verticalAlign=middle;resizable=0;points=[];autosize=1;strokeColor=none;fillColor=none;" parent="1" vertex="1">
          <mxGeometry x="145" y="550" width="50" height="30" as="geometry" />
        </mxCell>
        <mxCell id="xR3U2uLO1Am0mnn2qQ25-11" value="" style="ellipse;whiteSpace=wrap;html=1;aspect=fixed;fillColor=#dae8fc;strokeColor=#6c8ebf;" parent="1" vertex="1">
          <mxGeometry x="205" y="575" width="10" height="10" as="geometry" />
        </mxCell>
        <mxCell id="xR3U2uLO1Am0mnn2qQ25-12" style="edgeStyle=orthogonalEdgeStyle;rounded=0;orthogonalLoop=1;jettySize=auto;html=1;endArrow=none;endFill=0;" parent="1" source="xR3U2uLO1Am0mnn2qQ25-11" edge="1">
          <mxGeometry relative="1" as="geometry">
            <mxPoint x="210" y="605" as="targetPoint" />
          </mxGeometry>
        </mxCell>
        <mxCell id="xR3U2uLO1Am0mnn2qQ25-13" value="&lt;span style=&quot;font-size: 8px;&quot;&gt;end.&lt;/span&gt;" style="text;html=1;align=center;verticalAlign=middle;resizable=0;points=[];autosize=1;strokeColor=none;fillColor=none;" parent="1" vertex="1">
          <mxGeometry x="190" y="550" width="40" height="30" as="geometry" />
        </mxCell>
        <mxCell id="xR3U2uLO1Am0mnn2qQ25-14" value="&lt;span style=&quot;font-size: 10px;&quot;&gt;&lt;b&gt;0,n&lt;/b&gt;&lt;/span&gt;" style="text;html=1;align=center;verticalAlign=middle;resizable=0;points=[];autosize=1;strokeColor=none;fillColor=none;" parent="1" vertex="1">
          <mxGeometry x="275" y="745" width="40" height="30" as="geometry" />
        </mxCell>
        <mxCell id="xR3U2uLO1Am0mnn2qQ25-15" value="Turma" style="rounded=0;whiteSpace=wrap;html=1;" parent="1" vertex="1">
          <mxGeometry x="315" y="755" width="120" height="40" as="geometry" />
        </mxCell>
        <mxCell id="xR3U2uLO1Am0mnn2qQ25-16" value="" style="ellipse;whiteSpace=wrap;html=1;aspect=fixed;fillColor=#dae8fc;strokeColor=#6c8ebf;" parent="1" vertex="1">
          <mxGeometry x="320" y="725" width="10" height="10" as="geometry" />
        </mxCell>
        <mxCell id="xR3U2uLO1Am0mnn2qQ25-17" style="edgeStyle=orthogonalEdgeStyle;rounded=0;orthogonalLoop=1;jettySize=auto;html=1;endArrow=none;endFill=0;" parent="1" source="xR3U2uLO1Am0mnn2qQ25-16" edge="1">
          <mxGeometry relative="1" as="geometry">
            <mxPoint x="325" y="755" as="targetPoint" />
          </mxGeometry>
        </mxCell>
        <mxCell id="xR3U2uLO1Am0mnn2qQ25-18" value="&lt;span style=&quot;font-size: 8px;&quot;&gt;atv&lt;/span&gt;" style="text;html=1;align=center;verticalAlign=middle;resizable=0;points=[];autosize=1;strokeColor=none;fillColor=none;" parent="1" vertex="1">
          <mxGeometry x="310" y="700" width="30" height="30" as="geometry" />
        </mxCell>
        <mxCell id="xR3U2uLO1Am0mnn2qQ25-19" value="" style="ellipse;whiteSpace=wrap;html=1;aspect=fixed;fillColor=#dae8fc;strokeColor=#6c8ebf;" parent="1" vertex="1">
          <mxGeometry x="420" y="725" width="10" height="10" as="geometry" />
        </mxCell>
        <mxCell id="xR3U2uLO1Am0mnn2qQ25-20" style="edgeStyle=orthogonalEdgeStyle;rounded=0;orthogonalLoop=1;jettySize=auto;html=1;endArrow=none;endFill=0;" parent="1" source="xR3U2uLO1Am0mnn2qQ25-19" edge="1">
          <mxGeometry relative="1" as="geometry">
            <mxPoint x="425" y="755" as="targetPoint" />
          </mxGeometry>
        </mxCell>
        <mxCell id="xR3U2uLO1Am0mnn2qQ25-21" value="&lt;span style=&quot;font-size: 8px;&quot;&gt;hora&lt;/span&gt;" style="text;html=1;align=center;verticalAlign=middle;resizable=0;points=[];autosize=1;strokeColor=none;fillColor=none;" parent="1" vertex="1">
          <mxGeometry x="410" y="700" width="40" height="30" as="geometry" />
        </mxCell>
        <mxCell id="xR3U2uLO1Am0mnn2qQ25-22" value="" style="ellipse;whiteSpace=wrap;html=1;aspect=fixed;fillColor=#dae8fc;strokeColor=#6c8ebf;" parent="1" vertex="1">
          <mxGeometry x="350" y="725" width="10" height="10" as="geometry" />
        </mxCell>
        <mxCell id="xR3U2uLO1Am0mnn2qQ25-23" style="edgeStyle=orthogonalEdgeStyle;rounded=0;orthogonalLoop=1;jettySize=auto;html=1;endArrow=none;endFill=0;" parent="1" source="xR3U2uLO1Am0mnn2qQ25-22" edge="1">
          <mxGeometry relative="1" as="geometry">
            <mxPoint x="355" y="755" as="targetPoint" />
          </mxGeometry>
        </mxCell>
        <mxCell id="xR3U2uLO1Am0mnn2qQ25-24" value="&lt;span style=&quot;font-size: 8px;&quot;&gt;data(2)&lt;/span&gt;" style="text;html=1;align=center;verticalAlign=middle;resizable=0;points=[];autosize=1;strokeColor=none;fillColor=none;" parent="1" vertex="1">
          <mxGeometry x="335" y="700" width="50" height="30" as="geometry" />
        </mxCell>
        <mxCell id="xR3U2uLO1Am0mnn2qQ25-25" value="" style="ellipse;whiteSpace=wrap;html=1;aspect=fixed;fillColor=#dae8fc;strokeColor=#6c8ebf;" parent="1" vertex="1">
          <mxGeometry x="390" y="725" width="10" height="10" as="geometry" />
        </mxCell>
        <mxCell id="xR3U2uLO1Am0mnn2qQ25-26" style="edgeStyle=orthogonalEdgeStyle;rounded=0;orthogonalLoop=1;jettySize=auto;html=1;endArrow=none;endFill=0;" parent="1" source="xR3U2uLO1Am0mnn2qQ25-25" edge="1">
          <mxGeometry relative="1" as="geometry">
            <mxPoint x="395" y="755" as="targetPoint" />
          </mxGeometry>
        </mxCell>
        <mxCell id="xR3U2uLO1Am0mnn2qQ25-27" value="&lt;span style=&quot;font-size: 8px;&quot;&gt;qtd&lt;/span&gt;" style="text;html=1;align=center;verticalAlign=middle;resizable=0;points=[];autosize=1;strokeColor=none;fillColor=none;" parent="1" vertex="1">
          <mxGeometry x="385" y="700" width="30" height="30" as="geometry" />
        </mxCell>
        <mxCell id="xR3U2uLO1Am0mnn2qQ25-28" value="&lt;b&gt;&lt;font style=&quot;font-size: 10px;&quot;&gt;1,1&lt;/font&gt;&lt;/b&gt;" style="text;html=1;align=center;verticalAlign=middle;resizable=0;points=[];autosize=1;strokeColor=none;fillColor=none;" parent="1" vertex="1">
          <mxGeometry x="565" y="750" width="40" height="30" as="geometry" />
        </mxCell>
        <mxCell id="xR3U2uLO1Am0mnn2qQ25-29" value="" style="ellipse;whiteSpace=wrap;html=1;aspect=fixed;fillColor=#dae8fc;strokeColor=#6c8ebf;" parent="1" vertex="1">
          <mxGeometry x="320" y="820" width="10" height="10" as="geometry" />
        </mxCell>
        <mxCell id="xR3U2uLO1Am0mnn2qQ25-30" style="edgeStyle=orthogonalEdgeStyle;rounded=0;orthogonalLoop=1;jettySize=auto;html=1;endArrow=none;endFill=0;" parent="1" edge="1">
          <mxGeometry relative="1" as="geometry">
            <mxPoint x="324.94" y="795" as="targetPoint" />
            <mxPoint x="325" y="820" as="sourcePoint" />
            <Array as="points">
              <mxPoint x="325" y="795" />
            </Array>
          </mxGeometry>
        </mxCell>
        <mxCell id="xR3U2uLO1Am0mnn2qQ25-31" value="&lt;span style=&quot;font-size: 8px;&quot;&gt;duraÃ§Ã£o&lt;/span&gt;" style="text;html=1;align=center;verticalAlign=middle;resizable=0;points=[];autosize=1;strokeColor=none;fillColor=none;" parent="1" vertex="1">
          <mxGeometry x="300" y="820" width="50" height="30" as="geometry" />
        </mxCell>
        <mxCell id="xR3U2uLO1Am0mnn2qQ25-32" value="Instrutor" style="rounded=0;whiteSpace=wrap;html=1;" parent="1" vertex="1">
          <mxGeometry x="600" y="755" width="120" height="40" as="geometry" />
        </mxCell>
        <mxCell id="xR3U2uLO1Am0mnn2qQ25-33" value="" style="ellipse;whiteSpace=wrap;html=1;aspect=fixed;fillColor=#f8cecc;strokeColor=#b85450;" parent="1" vertex="1">
          <mxGeometry x="605" y="725" width="10" height="10" as="geometry" />
        </mxCell>
        <mxCell id="xR3U2uLO1Am0mnn2qQ25-34" style="edgeStyle=orthogonalEdgeStyle;rounded=0;orthogonalLoop=1;jettySize=auto;html=1;endArrow=none;endFill=0;" parent="1" source="xR3U2uLO1Am0mnn2qQ25-33" edge="1">
          <mxGeometry relative="1" as="geometry">
            <mxPoint x="610" y="755" as="targetPoint" />
          </mxGeometry>
        </mxCell>
        <mxCell id="xR3U2uLO1Am0mnn2qQ25-35" value="&lt;span style=&quot;font-size: 8px;&quot;&gt;RG&lt;/span&gt;" style="text;html=1;align=center;verticalAlign=middle;resizable=0;points=[];autosize=1;strokeColor=none;fillColor=none;" parent="1" vertex="1">
          <mxGeometry x="590" y="700" width="40" height="30" as="geometry" />
        </mxCell>
        <mxCell id="xR3U2uLO1Am0mnn2qQ25-36" value="" style="ellipse;whiteSpace=wrap;html=1;aspect=fixed;fillColor=#dae8fc;strokeColor=#6c8ebf;" parent="1" vertex="1">
          <mxGeometry x="705" y="725" width="10" height="10" as="geometry" />
        </mxCell>
        <mxCell id="xR3U2uLO1Am0mnn2qQ25-37" style="edgeStyle=orthogonalEdgeStyle;rounded=0;orthogonalLoop=1;jettySize=auto;html=1;endArrow=none;endFill=0;" parent="1" source="xR3U2uLO1Am0mnn2qQ25-36" edge="1">
          <mxGeometry relative="1" as="geometry">
            <mxPoint x="710" y="755" as="targetPoint" />
          </mxGeometry>
        </mxCell>
        <mxCell id="xR3U2uLO1Am0mnn2qQ25-38" value="&lt;span style=&quot;font-size: 8px;&quot;&gt;Nome&lt;/span&gt;" style="text;html=1;align=center;verticalAlign=middle;resizable=0;points=[];autosize=1;strokeColor=none;fillColor=none;" parent="1" vertex="1">
          <mxGeometry x="690" y="700" width="40" height="30" as="geometry" />
        </mxCell>
        <mxCell id="xR3U2uLO1Am0mnn2qQ25-39" value="" style="ellipse;whiteSpace=wrap;html=1;aspect=fixed;fillColor=#dae8fc;strokeColor=#6c8ebf;" parent="1" vertex="1">
          <mxGeometry x="635" y="725" width="10" height="10" as="geometry" />
        </mxCell>
        <mxCell id="xR3U2uLO1Am0mnn2qQ25-40" style="edgeStyle=orthogonalEdgeStyle;rounded=0;orthogonalLoop=1;jettySize=auto;html=1;endArrow=none;endFill=0;" parent="1" source="xR3U2uLO1Am0mnn2qQ25-39" edge="1">
          <mxGeometry relative="1" as="geometry">
            <mxPoint x="640" y="755" as="targetPoint" />
          </mxGeometry>
        </mxCell>
        <mxCell id="xR3U2uLO1Am0mnn2qQ25-41" value="&lt;span style=&quot;font-size: 8px;&quot;&gt;data&lt;/span&gt;" style="text;html=1;align=center;verticalAlign=middle;resizable=0;points=[];autosize=1;strokeColor=none;fillColor=none;" parent="1" vertex="1">
          <mxGeometry x="620" y="700" width="40" height="30" as="geometry" />
        </mxCell>
        <mxCell id="xR3U2uLO1Am0mnn2qQ25-42" value="" style="ellipse;whiteSpace=wrap;html=1;aspect=fixed;fillColor=#dae8fc;strokeColor=#6c8ebf;" parent="1" vertex="1">
          <mxGeometry x="675" y="725" width="10" height="10" as="geometry" />
        </mxCell>
        <mxCell id="xR3U2uLO1Am0mnn2qQ25-43" style="edgeStyle=orthogonalEdgeStyle;rounded=0;orthogonalLoop=1;jettySize=auto;html=1;endArrow=none;endFill=0;" parent="1" source="xR3U2uLO1Am0mnn2qQ25-42" edge="1">
          <mxGeometry relative="1" as="geometry">
            <mxPoint x="680" y="755" as="targetPoint" />
          </mxGeometry>
        </mxCell>
        <mxCell id="xR3U2uLO1Am0mnn2qQ25-44" value="&lt;span style=&quot;font-size: 8px;&quot;&gt;titulaÃ§Ã£o&lt;/span&gt;" style="text;html=1;align=center;verticalAlign=middle;resizable=0;points=[];autosize=1;strokeColor=none;fillColor=none;" parent="1" vertex="1">
          <mxGeometry x="655" y="700" width="50" height="30" as="geometry" />
        </mxCell>
        <mxCell id="xR3U2uLO1Am0mnn2qQ25-50" value="" style="ellipse;whiteSpace=wrap;html=1;aspect=fixed;fillColor=#dae8fc;strokeColor=#6c8ebf;" parent="1" vertex="1">
          <mxGeometry x="755" y="745" width="10" height="10" as="geometry" />
        </mxCell>
        <mxCell id="xR3U2uLO1Am0mnn2qQ25-51" style="edgeStyle=orthogonalEdgeStyle;rounded=0;orthogonalLoop=1;jettySize=auto;html=1;endArrow=none;endFill=0;" parent="1" source="xR3U2uLO1Am0mnn2qQ25-50" edge="1">
          <mxGeometry relative="1" as="geometry">
            <mxPoint x="720" y="775" as="targetPoint" />
            <Array as="points">
              <mxPoint x="760" y="775" />
            </Array>
          </mxGeometry>
        </mxCell>
        <mxCell id="xR3U2uLO1Am0mnn2qQ25-52" value="&lt;span style=&quot;font-size: 8px;&quot;&gt;tel(1,n)&lt;/span&gt;" style="text;html=1;align=center;verticalAlign=middle;resizable=0;points=[];autosize=1;strokeColor=none;fillColor=none;" parent="1" vertex="1">
          <mxGeometry x="735" y="720" width="50" height="30" as="geometry" />
        </mxCell>
        <mxCell id="xR3U2uLO1Am0mnn2qQ25-54" style="edgeStyle=orthogonalEdgeStyle;rounded=0;orthogonalLoop=1;jettySize=auto;html=1;entryX=0;entryY=0.5;entryDx=0;entryDy=0;endArrow=none;endFill=0;" parent="1" source="xR3U2uLO1Am0mnn2qQ25-53" target="xR3U2uLO1Am0mnn2qQ25-32" edge="1">
          <mxGeometry relative="1" as="geometry" />
        </mxCell>
        <mxCell id="xR3U2uLO1Am0mnn2qQ25-53" value="Orienta" style="rhombus;whiteSpace=wrap;html=1;" parent="1" vertex="1">
          <mxGeometry x="480" y="755" width="80" height="40" as="geometry" />
        </mxCell>
        <mxCell id="xR3U2uLO1Am0mnn2qQ25-55" style="edgeStyle=orthogonalEdgeStyle;rounded=0;orthogonalLoop=1;jettySize=auto;html=1;endArrow=none;endFill=0;entryX=1;entryY=0.5;entryDx=0;entryDy=0;" parent="1" source="xR3U2uLO1Am0mnn2qQ25-53" target="xR3U2uLO1Am0mnn2qQ25-15" edge="1">
          <mxGeometry relative="1" as="geometry">
            <mxPoint x="440" y="775" as="targetPoint" />
          </mxGeometry>
        </mxCell>
        <mxCell id="xR3U2uLO1Am0mnn2qQ25-61" style="edgeStyle=orthogonalEdgeStyle;rounded=0;orthogonalLoop=1;jettySize=auto;html=1;entryX=0;entryY=0.5;entryDx=0;entryDy=0;endArrow=none;endFill=0;" parent="1" source="xR3U2uLO1Am0mnn2qQ25-60" target="xR3U2uLO1Am0mnn2qQ25-15" edge="1">
          <mxGeometry relative="1" as="geometry" />
        </mxCell>
        <mxCell id="xR3U2uLO1Am0mnn2qQ25-62" style="edgeStyle=orthogonalEdgeStyle;rounded=0;orthogonalLoop=1;jettySize=auto;html=1;endArrow=none;endFill=0;" parent="1" source="xR3U2uLO1Am0mnn2qQ25-60" target="xR3U2uLO1Am0mnn2qQ25-1" edge="1">
          <mxGeometry relative="1" as="geometry" />
        </mxCell>
        <mxCell id="xR3U2uLO1Am0mnn2qQ25-60" value="pertence" style="rhombus;whiteSpace=wrap;html=1;" parent="1" vertex="1">
          <mxGeometry x="150" y="755" width="80" height="40" as="geometry" />
        </mxCell>
        <mxCell id="xR3U2uLO1Am0mnn2qQ25-63" value="&lt;b&gt;&lt;font style=&quot;font-size: 10px;&quot;&gt;1&lt;/font&gt;&lt;/b&gt;" style="text;html=1;align=center;verticalAlign=middle;resizable=0;points=[];autosize=1;strokeColor=none;fillColor=none;" parent="1" vertex="1">
          <mxGeometry x="375" y="933" width="30" height="30" as="geometry" />
        </mxCell>
        <mxCell id="xR3U2uLO1Am0mnn2qQ25-64" value="" style="ellipse;whiteSpace=wrap;html=1;aspect=fixed;fillColor=#dae8fc;strokeColor=#6c8ebf;" parent="1" vertex="1">
          <mxGeometry x="90" y="610" width="10" height="10" as="geometry" />
        </mxCell>
        <mxCell id="xR3U2uLO1Am0mnn2qQ25-65" style="edgeStyle=orthogonalEdgeStyle;rounded=0;orthogonalLoop=1;jettySize=auto;html=1;endArrow=none;endFill=0;entryX=0;entryY=0.25;entryDx=0;entryDy=0;" parent="1" source="xR3U2uLO1Am0mnn2qQ25-64" target="xR3U2uLO1Am0mnn2qQ25-1" edge="1">
          <mxGeometry relative="1" as="geometry">
            <mxPoint x="150" y="615" as="targetPoint" />
          </mxGeometry>
        </mxCell>
        <mxCell id="xR3U2uLO1Am0mnn2qQ25-66" value="&lt;span style=&quot;font-size: 8px;&quot;&gt;dt-nasc&lt;/span&gt;&lt;span style=&quot;color: rgba(0, 0, 0, 0); font-family: monospace; font-size: 0px; text-align: start;&quot;&gt;%3CmxGraphModel%3E%3Croot%3E%3CmxCell%20id%3D%220%22%2F%3E%3CmxCell%20id%3D%221%22%20parent%3D%220%22%2F%3E%3CmxCell%20id%3D%222%22%20value%3D%22%22%20style%3D%22ellipse%3BwhiteSpace%3Dwrap%3Bhtml%3D1%3Baspect%3Dfixed%3BfillColor%3D%23dae8fc%3BstrokeColor%3D%236c8ebf%3B%22%20vertex%3D%221%22%20parent%3D%221%22%3E%3CmxGeometry%20x%3D%22135%22%20y%3D%22575%22%20width%3D%2210%22%20height%3D%2210%22%20as%3D%22geometry%22%2F%3E%3C%2FmxCell%3E%3CmxCell%20id%3D%223%22%20style%3D%22edgeStyle%3DorthogonalEdgeStyle%3Brounded%3D0%3BorthogonalLoop%3D1%3BjettySize%3Dauto%3Bhtml%3D1%3BendArrow%3Dnone%3BendFill%3D0%3B%22%20edge%3D%221%22%20source%3D%222%22%20parent%3D%221%22%3E%3CmxGeometry%20relative%3D%221%22%20as%3D%22geometry%22%3E%3CmxPoint%20x%3D%22140%22%20y%3D%22605%22%20as%3D%22targetPoint%22%2F%3E%3C%2FmxGeometry%3E%3C%2FmxCell%3E%3CmxCell%20id%3D%224%22%20value%3D%22%26lt%3Bspan%20style%3D%26quot%3Bfont-size%3A%208px%3B%26quot%3B%26gt%3Bcg-mat%26lt%3B%2Fspan%26gt%3B%22%20style%3D%22text%3Bhtml%3D1%3Balign%3Dcenter%3BverticalAlign%3Dmiddle%3Bresizable%3D0%3Bpoints%3D%5B%5D%3Bautosize%3D1%3BstrokeColor%3Dnone%3BfillColor%3Dnone%3B%22%20vertex%3D%221%22%20parent%3D%221%22%3E%3CmxGeometry%20x%3D%22115%22%20y%3D%22550%22%20width%3D%2250%22%20height%3D%2230%22%20as%3D%22geometry%22%2F%3E%3C%2FmxCell%3E%3CmxCell%20id%3D%225%22%20value%3D%22%22%20style%3D%22ellipse%3BwhiteSpace%3Dwrap%3Bhtml%3D1%3Baspect%3Dfixed%3BfillColor%3D%23dae8fc%3BstrokeColor%3D%236c8ebf%3B%22%20vertex%3D%221%22%20parent%3D%221%22%3E%3CmxGeometry%20x%3D%22165%22%20y%3D%22575%22%20width%3D%2210%22%20height%3D%2210%22%20as%3D%22geometry%22%2F%3E%3C%2FmxCell%3E%3CmxCell%20id%3D%226%22%20style%3D%22edgeStyle%3DorthogonalEdgeStyle%3Brounded%3D0%3BorthogonalLoop%3D1%3BjettySize%3Dauto%3Bhtml%3D1%3BendArrow%3Dnone%3BendFill%3D0%3B%22%20edge%3D%221%22%20source%3D%225%22%20parent%3D%221%22%3E%3CmxGeometry%20relative%3D%221%22%20as%3D%22geometry%22%3E%3CmxPoint%20x%3D%22170%22%20y%3D%22605%22%20as%3D%22targetPoint%22%2F%3E%3C%2FmxGeometry%3E%3C%2FmxCell%3E%3C%2Froot%3E%3C%2FmxGraphModel%3E&lt;/span&gt;&lt;span style=&quot;color: rgba(0, 0, 0, 0); font-family: monospace; font-size: 0px; text-align: start;&quot;&gt;%3CmxGraphModel%3E%3Croot%3E%3CmxCell%20id%3D%220%22%2F%3E%3CmxCell%20id%3D%221%22%20parent%3D%220%22%2F%3E%3CmxCell%20id%3D%222%22%20value%3D%22%22%20style%3D%22ellipse%3BwhiteSpace%3Dwrap%3Bhtml%3D1%3Baspect%3Dfixed%3BfillColor%3D%23dae8fc%3BstrokeColor%3D%236c8ebf%3B%22%20vertex%3D%221%22%20parent%3D%221%22%3E%3CmxGeometry%20x%3D%22135%22%20y%3D%22575%22%20width%3D%2210%22%20height%3D%2210%22%20as%3D%22geometry%22%2F%3E%3C%2FmxCell%3E%3CmxCell%20id%3D%223%22%20style%3D%22edgeStyle%3DorthogonalEdgeStyle%3Brounded%3D0%3BorthogonalLoop%3D1%3BjettySize%3Dauto%3Bhtml%3D1%3BendArrow%3Dnone%3BendFill%3D0%3B%22%20edge%3D%221%22%20source%3D%222%22%20parent%3D%221%22%3E%3CmxGeometry%20relative%3D%221%22%20as%3D%22geometry%22%3E%3CmxPoint%20x%3D%22140%22%20y%3D%22605%22%20as%3D%22targetPoint%22%2F%3E%3C%2FmxGeometry%3E%3C%2FmxCell%3E%3CmxCell%20id%3D%224%22%20value%3D%22%26lt%3Bspan%20style%3D%26quot%3Bfont-size%3A%208px%3B%26quot%3B%26gt%3Bcg-mat%26lt%3B%2Fspan%26gt%3B%22%20style%3D%22text%3Bhtml%3D1%3Balign%3Dcenter%3BverticalAlign%3Dmiddle%3Bresizable%3D0%3Bpoints%3D%5B%5D%3Bautosize%3D1%3BstrokeColor%3Dnone%3BfillColor%3Dnone%3B%22%20vertex%3D%221%22%20parent%3D%221%22%3E%3CmxGeometry%20x%3D%22115%22%20y%3D%22550%22%20width%3D%2250%22%20height%3D%2230%22%20as%3D%22geometry%22%2F%3E%3C%2FmxCell%3E%3CmxCell%20id%3D%225%22%20value%3D%22%22%20style%3D%22ellipse%3BwhiteSpace%3Dwrap%3Bhtml%3D1%3Baspect%3Dfixed%3BfillColor%3D%23dae8fc%3BstrokeColor%3D%236c8ebf%3B%22%20vertex%3D%221%22%20parent%3D%221%22%3E%3CmxGeometry%20x%3D%22165%22%20y%3D%22575%22%20width%3D%2210%22%20height%3D%2210%22%20as%3D%22geometry%22%2F%3E%3C%2FmxCell%3E%3CmxCell%20id%3D%226%22%20style%3D%22edgeStyle%3DorthogonalEdgeStyle%3Brounded%3D0%3BorthogonalLoop%3D1%3BjettySize%3Dauto%3Bhtml%3D1%3BendArrow%3Dnone%3BendFill%3D0%3B%22%20edge%3D%221%22%20source%3D%225%22%20parent%3D%221%22%3E%3CmxGeometry%20relative%3D%221%22%20as%3D%22geometry%22%3E%3CmxPoint%20x%3D%22170%22%20y%3D%22605%22%20as%3D%22targetPoint%22%2F%3E%3C%2FmxGeometry%3E%3C%2FmxCell%3E%3C%2Froot%3E%3C%2FmxGraphModel%3E&lt;/span&gt;" style="text;html=1;align=center;verticalAlign=middle;resizable=0;points=[];autosize=1;strokeColor=none;fillColor=none;" parent="1" vertex="1">
          <mxGeometry x="40" y="600" width="50" height="30" as="geometry" />
        </mxCell>
        <mxCell id="xR3U2uLO1Am0mnn2qQ25-67" value="" style="ellipse;whiteSpace=wrap;html=1;aspect=fixed;fillColor=#dae8fc;strokeColor=#6c8ebf;" parent="1" vertex="1">
          <mxGeometry x="90" y="630" width="10" height="10" as="geometry" />
        </mxCell>
        <mxCell id="xR3U2uLO1Am0mnn2qQ25-68" style="edgeStyle=orthogonalEdgeStyle;rounded=0;orthogonalLoop=1;jettySize=auto;html=1;endArrow=none;endFill=0;entryX=0;entryY=0.75;entryDx=0;entryDy=0;" parent="1" source="xR3U2uLO1Am0mnn2qQ25-67" target="xR3U2uLO1Am0mnn2qQ25-1" edge="1">
          <mxGeometry relative="1" as="geometry">
            <mxPoint x="180" y="615" as="targetPoint" />
          </mxGeometry>
        </mxCell>
        <mxCell id="xR3U2uLO1Am0mnn2qQ25-69" value="&lt;span style=&quot;font-size: 8px;&quot;&gt;tel&lt;/span&gt;" style="text;html=1;align=center;verticalAlign=middle;resizable=0;points=[];autosize=1;strokeColor=none;fillColor=none;" parent="1" vertex="1">
          <mxGeometry x="50" y="620" width="30" height="30" as="geometry" />
        </mxCell>
        <mxCell id="xR3U2uLO1Am0mnn2qQ25-70" value="&lt;span style=&quot;font-size: 10px;&quot;&gt;&lt;b&gt;n,n&lt;/b&gt;&lt;/span&gt;" style="text;html=1;align=center;verticalAlign=middle;resizable=0;points=[];autosize=1;strokeColor=none;fillColor=none;" parent="1" vertex="1">
          <mxGeometry x="190" y="645" width="40" height="30" as="geometry" />
        </mxCell>
        <mxCell id="xR3U2uLO1Am0mnn2qQ25-76" style="edgeStyle=orthogonalEdgeStyle;rounded=0;orthogonalLoop=1;jettySize=auto;html=1;endArrow=none;endFill=0;entryX=1.017;entryY=0.395;entryDx=0;entryDy=0;entryPerimeter=0;" parent="1" source="xR3U2uLO1Am0mnn2qQ25-75" target="xR3U2uLO1Am0mnn2qQ25-1" edge="1">
          <mxGeometry relative="1" as="geometry">
            <mxPoint x="370" y="620" as="targetPoint" />
          </mxGeometry>
        </mxCell>
        <mxCell id="xR3U2uLO1Am0mnn2qQ25-75" value="Auxilia" style="rhombus;whiteSpace=wrap;html=1;" parent="1" vertex="1">
          <mxGeometry x="335" y="640" width="80" height="40" as="geometry" />
        </mxCell>
        <mxCell id="xR3U2uLO1Am0mnn2qQ25-77" style="edgeStyle=orthogonalEdgeStyle;rounded=0;orthogonalLoop=1;jettySize=auto;html=1;endArrow=none;endFill=0;entryX=0.5;entryY=0;entryDx=0;entryDy=0;exitX=0.499;exitY=1.058;exitDx=0;exitDy=0;exitPerimeter=0;" parent="1" source="xR3U2uLO1Am0mnn2qQ25-75" target="xR3U2uLO1Am0mnn2qQ25-15" edge="1">
          <mxGeometry relative="1" as="geometry">
            <mxPoint x="375" y="690" as="sourcePoint" />
            <mxPoint x="382" y="750" as="targetPoint" />
            <Array as="points" />
          </mxGeometry>
        </mxCell>
        <mxCell id="xR3U2uLO1Am0mnn2qQ25-78" value="Registro falta" style="rounded=0;whiteSpace=wrap;html=1;" parent="1" vertex="1">
          <mxGeometry x="317" y="963" width="116" height="40" as="geometry" />
        </mxCell>
        <mxCell id="xR3U2uLO1Am0mnn2qQ25-79" style="edgeStyle=orthogonalEdgeStyle;rounded=0;orthogonalLoop=1;jettySize=auto;html=1;endArrow=none;endFill=0;" parent="1" source="xR3U2uLO1Am0mnn2qQ25-80" edge="1">
          <mxGeometry relative="1" as="geometry">
            <mxPoint x="375" y="800" as="targetPoint" />
            <Array as="points">
              <mxPoint x="375" y="794" />
            </Array>
          </mxGeometry>
        </mxCell>
        <mxCell id="xR3U2uLO1Am0mnn2qQ25-86" style="edgeStyle=orthogonalEdgeStyle;rounded=0;orthogonalLoop=1;jettySize=auto;html=1;endArrow=none;endFill=0;" parent="1" source="xR3U2uLO1Am0mnn2qQ25-80" target="xR3U2uLO1Am0mnn2qQ25-78" edge="1">
          <mxGeometry relative="1" as="geometry" />
        </mxCell>
        <mxCell id="xR3U2uLO1Am0mnn2qQ25-80" value="contem" style="rhombus;whiteSpace=wrap;html=1;" parent="1" vertex="1">
          <mxGeometry x="335" y="860" width="80" height="40" as="geometry" />
        </mxCell>
        <mxCell id="xR3U2uLO1Am0mnn2qQ25-83" value="&lt;b&gt;&lt;font style=&quot;font-size: 10px;&quot;&gt;1,n&lt;/font&gt;&lt;/b&gt;" style="text;html=1;align=center;verticalAlign=middle;resizable=0;points=[];autosize=1;strokeColor=none;fillColor=none;" parent="1" vertex="1">
          <mxGeometry x="370" y="680" width="40" height="30" as="geometry" />
        </mxCell>
        <mxCell id="xR3U2uLO1Am0mnn2qQ25-84" value="&lt;b&gt;&lt;font style=&quot;font-size: 10px;&quot;&gt;1,n&lt;/font&gt;&lt;/b&gt;" style="text;html=1;align=center;verticalAlign=middle;resizable=0;points=[];autosize=1;strokeColor=none;fillColor=none;" parent="1" vertex="1">
          <mxGeometry x="245" y="600" width="40" height="30" as="geometry" />
        </mxCell>
        <mxCell id="xR3U2uLO1Am0mnn2qQ25-87" value="&lt;b&gt;&lt;font style=&quot;font-size: 10px;&quot;&gt;1,n&lt;/font&gt;&lt;/b&gt;" style="text;html=1;align=center;verticalAlign=middle;resizable=0;points=[];autosize=1;strokeColor=none;fillColor=none;" parent="1" vertex="1">
          <mxGeometry x="374" y="795" width="40" height="30" as="geometry" />
        </mxCell>
        <mxCell id="WAuPQYUlDlWEV0hXY6on-1" value="" style="ellipse;whiteSpace=wrap;html=1;aspect=fixed;fillColor=#dae8fc;strokeColor=#6c8ebf;" vertex="1" parent="1">
          <mxGeometry x="315" y="933" width="10" height="10" as="geometry" />
        </mxCell>
        <mxCell id="WAuPQYUlDlWEV0hXY6on-2" style="edgeStyle=orthogonalEdgeStyle;rounded=0;orthogonalLoop=1;jettySize=auto;html=1;endArrow=none;endFill=0;" edge="1" parent="1" source="WAuPQYUlDlWEV0hXY6on-1">
          <mxGeometry relative="1" as="geometry">
            <mxPoint x="320" y="963" as="targetPoint" />
          </mxGeometry>
        </mxCell>
        <mxCell id="WAuPQYUlDlWEV0hXY6on-3" value="&lt;span style=&quot;font-size: 8px;&quot;&gt;nome&lt;/span&gt;" style="text;html=1;align=center;verticalAlign=middle;resizable=0;points=[];autosize=1;strokeColor=none;fillColor=none;" vertex="1" parent="1">
          <mxGeometry x="300" y="908" width="40" height="30" as="geometry" />
        </mxCell>
        <mxCell id="WAuPQYUlDlWEV0hXY6on-4" value="" style="ellipse;whiteSpace=wrap;html=1;aspect=fixed;fillColor=#dae8fc;strokeColor=#6c8ebf;" vertex="1" parent="1">
          <mxGeometry x="420" y="933" width="10" height="10" as="geometry" />
        </mxCell>
        <mxCell id="WAuPQYUlDlWEV0hXY6on-5" style="edgeStyle=orthogonalEdgeStyle;rounded=0;orthogonalLoop=1;jettySize=auto;html=1;endArrow=none;endFill=0;" edge="1" parent="1" source="WAuPQYUlDlWEV0hXY6on-4">
          <mxGeometry relative="1" as="geometry">
            <mxPoint x="425" y="963" as="targetPoint" />
          </mxGeometry>
        </mxCell>
        <mxCell id="WAuPQYUlDlWEV0hXY6on-6" value="&lt;span style=&quot;font-size: 8px;&quot;&gt;faltas&lt;/span&gt;" style="text;html=1;align=center;verticalAlign=middle;resizable=0;points=[];autosize=1;strokeColor=none;fillColor=none;" vertex="1" parent="1">
          <mxGeometry x="405" y="908" width="40" height="30" as="geometry" />
        </mxCell>
      </root>
    </mxGraphModel>
  </diagram>
</mxfile>
